# xmcd CD database file
#
# Track frame offsets:
#	150
#	15055
#	33635
#	43960
#	56093
#	77795
#	89025
#	105623
#	119613
#	137575
#	149013
#	162193
#	174700
#	190273
#	205863
#
# Disc length: 2925 seconds
#
# Revision: 1
# Processed by: cddbd v1.5.2PL0 Copyright (c) Steve Scherf et al.
# Submitted via: CDex 1.77
#
DISCID=d90b6b0f
DTITLE=Various Artist - Hits of the 70s Volume 2
DYEAR=1971
DGENRE=Pop
TTITLE0=John Travolta - Greased Lightnin'
TTITLE1=Freda Paynf - Band of Gold
TTITLE2=George McCrae - It's Been So Long
TTITLE3=Tymes - You Little Trustmaker
TTITLE4=Mungo Jerry - Baby Jump
TTITLE5=The New Seekers - I'd Like To Teach The World To Sing
TTITLE6=Paper Lace - The Night Chicago Died
TTITLE7=The New Seekers - Pinball Wizard
TTITLE8=Marmalade - Reflections Of My Life
TTITLE9=Edison Lighthouse - Love Grows
TTITLE10=The Foundation - Build Me Up Buttercup
TTITLE11=The New Seekers - Beg, Steal Or Borrow
TTITLE12=Mungo Jerry- In The Summer Time
TTITLE13=Harold Melvin and The Bluenotes - If You Don't Know Me By Now
TTITLE14=The Rubettes - Huke Box Jive
EXTD=YEAR: 1971
EXTT0=
EXTT1=
EXTT2=
EXTT3=
EXTT4=
EXTT5=
EXTT6=
EXTT7=
EXTT8=
EXTT9=
EXTT10=
EXTT11=
EXTT12=
EXTT13=
EXTT14=
PLAYORDER=
